<?xml version="1.0" encoding="utf-8"?>
<!-- Generator: Adobe Illustrator 16.0.0, SVG Export Plug-In . SVG Version: 6.00 Build 0)  -->
<!DOCTYPE svg PUBLIC "-//W3C//DTD SVG 1.1//EN" "http://www.w3.org/Graphics/SVG/1.1/DTD/svg11.dtd">
<svg version="1.1" id="Layer_4" xmlns="http://www.w3.org/2000/svg" xmlns:xlink="http://www.w3.org/1999/xlink" x="0px" y="0px"
	 width="500px" height="500px" viewBox="0 0 500 500" enable-background="new 0 0 500 500" xml:space="preserve">
<circle fill="#84B636" cx="250" cy="250" r="245"/>
<path opacity="0.3" fill="#161616" d="M494.975,247.975L349.5,102.5l-33.546,50.015L304,140.562l-102.233,93.615L304,336.411
	l-171.355,40.012l118.561,118.563c2.532-0.012,5.053-0.069,7.566-0.157c0.551-0.02,1.102-0.04,1.651-0.063
	c1.158-0.049,2.315-0.101,3.469-0.165c0.013,0,0.025-0.002,0.038-0.002c2.487-0.14,4.964-0.322,7.432-0.535
	c0.521-0.045,1.042-0.09,1.563-0.139c1.155-0.107,2.31-0.218,3.461-0.342c0.111-0.012,0.223-0.025,0.334-0.038
	c2.366-0.256,4.721-0.55,7.066-0.874c0.486-0.066,0.973-0.134,1.459-0.203c1.151-0.166,2.303-0.337,3.449-0.519
	c0.162-0.026,0.323-0.055,0.485-0.081c2.293-0.368,4.575-0.771,6.847-1.203c0.447-0.085,0.895-0.169,1.341-0.257
	c1.148-0.225,2.296-0.455,3.438-0.696c0.185-0.038,0.367-0.08,0.551-0.119c2.25-0.48,4.488-0.993,6.715-1.534
	c0.402-0.098,0.805-0.194,1.206-0.294c1.147-0.285,2.292-0.576,3.433-0.878c0.181-0.047,0.36-0.098,0.541-0.146
	c2.231-0.595,4.449-1.222,6.655-1.878c0.352-0.104,0.703-0.207,1.054-0.313c1.145-0.347,2.287-0.698,3.425-1.061
	c0.172-0.055,0.343-0.112,0.516-0.168c2.221-0.712,4.427-1.456,6.62-2.229c0.293-0.104,0.586-0.206,0.879-0.311
	c1.145-0.408,2.285-0.824,3.422-1.249c0.146-0.055,0.293-0.112,0.439-0.167c2.233-0.841,4.451-1.714,6.653-2.617
	c0.221-0.09,0.442-0.18,0.663-0.271c1.144-0.474,2.284-0.954,3.42-1.444c0.123-0.054,0.246-0.108,0.369-0.162
	c2.25-0.976,4.482-1.984,6.697-3.024c0.139-0.065,0.278-0.13,0.418-0.195c1.145-0.541,2.285-1.09,3.421-1.647
	c0.09-0.045,0.179-0.09,0.269-0.134c2.286-1.127,4.553-2.288,6.797-3.483c0.043-0.022,0.086-0.045,0.129-0.067
	c1.146-0.611,2.286-1.231,3.422-1.86c0.055-0.03,0.108-0.061,0.163-0.091c3.436-1.906,6.821-3.893,10.152-5.956
	c0.013-0.008,0.025-0.017,0.038-0.024c34.85-21.6,63.879-51.7,84.195-87.404l0.01,0.008C483.389,335.296,495,294.006,495,250
	C495,249.323,494.979,248.651,494.975,247.975z"/>
<g>
	<path fill="#FFFFFF" d="M170.957,392.282c-28.94,0-48.295-17.365-48.295-46.848c0-40.879,9.587-103.643,62.584-103.643
		c2.895,0,4.884,1.266,7.055,3.075c17.726,13.566,34.909,22.066,57.699,22.066s39.974-8.5,57.699-22.066
		c2.171-1.809,4.16-3.075,7.055-3.075c52.997,0,62.584,62.764,62.584,103.643c0,29.482-19.354,46.848-48.295,46.848H170.957z"/>
	<path fill="#FFFFFF" d="M180.543,184.155c0-38.346,31.111-69.457,69.457-69.457s69.457,31.111,69.457,69.457
		S288.346,253.612,250,253.612S180.543,222.501,180.543,184.155z"/>
</g>
<path opacity="0.3" fill="#161616" d="M377.333,343.998c-0.202-40.893-10.138-102.207-62.579-102.207
	c-2.895,0-4.884,1.266-7.055,3.075c-5.906,4.521-11.756,8.462-17.769,11.729L377.333,343.998z"/>
<path opacity="0.3" fill="#161616" d="M280.099,246.764c23.282-11.22,39.358-35.044,39.358-62.609c0-8.739-1.632-17.095-4.581-24.8
	l-71.874,50.312L280.099,246.764z"/>
<path fill="#F39C12" d="M418.672,200.329c0,6.746-5.473,12.22-12.218,12.22h-52.947v52.946c0,6.746-5.473,12.219-12.218,12.219
	H316.85c-6.745,0-12.218-5.473-12.218-12.219v-52.946h-52.946c-6.746,0-12.219-5.474-12.219-12.22v-24.438
	c0-6.746,5.473-12.218,12.219-12.218h52.946v-52.947c0-6.745,5.473-12.219,12.218-12.219h24.439c6.745,0,12.218,5.474,12.218,12.219
	v52.947h52.947c6.745,0,12.218,5.474,12.218,12.218V200.329z"/>
</svg>
